<svg width="165" height="144" viewBox="0 0 165 144" fill="none" xmlns="http://www.w3.org/2000/svg">
<rect width="164.066" height="144" rx="10" fill="white"/>
<path d="M94.1919 25.9091H105.465V92.4545C105.465 98.3939 104.374 103.439 102.192 107.591C100.01 111.742 96.9343 114.894 92.9646 117.045C88.9949 119.197 84.3131 120.273 78.9191 120.273C73.8282 120.273 69.2979 119.348 65.3282 117.5C61.3585 115.621 58.2373 112.955 55.9646 109.5C53.6919 106.045 52.5555 101.939 52.5555 97.1818H63.6464C63.6464 99.8182 64.2979 102.121 65.601 104.091C66.9343 106.03 68.7525 107.545 71.0555 108.636C73.3585 109.727 75.9798 110.273 78.9191 110.273C82.1616 110.273 84.9191 109.591 87.1919 108.227C89.4646 106.864 91.1919 104.864 92.3737 102.227C93.5858 99.5606 94.1919 96.303 94.1919 92.4545V25.9091Z" fill="black"/>
</svg>