<svg xmlns="http://www.w3.org/2000/svg" xmlns:xlink="http://www.w3.org/1999/xlink" viewBox="0 0 400 880" width="400" height="880" preserveAspectRatio="xMidYMid meet" style="width: 100%; height: 100%; transform: translate3d(0px, 0px, 0px); content-visibility: visible;"><defs><clipPath id="__lottie_element_9228"><rect width="400" height="880" x="0" y="0"></rect></clipPath></defs><g clip-path="url(#__lottie_element_9228)"><g transform="matrix(1,0,0,1,218.80299377441406,299.0359191894531)" opacity="1" style="display: block;"><g opacity="1" transform="matrix(1,0,0,1,0,0)"><path stroke-linecap="butt" stroke-linejoin="miter" fill-opacity="0" stroke-miterlimit="4" stroke="rgb(19,71,6)" stroke-opacity="1" stroke-width="5" d=" M-20,-42 C-20,-42 -51,291 -7,478"></path></g><g opacity="1" transform="matrix(1,0,0,1,0,0)"><path fill="rgb(61,102,51)" fill-opacity="1" d=" M86.75301361083984,46.80097198486328 C86.75301361083984,46.80097198486328 37.443668365478516,49.61949157714844 3.557077646255493,82.05958557128906 C-12.5345458984375,97.46882629394531 -25.586000442504883,119.7750015258789 -28,151 C-28.233999252319336,154.0229949951172 13.060272216796875,142.1074676513672 42.42927169799805,115.31146240234375 C71.17227172851562,89.08646392822266 86.75301361083984,46.80097198486328 86.75301361083984,46.80097198486328z"></path><path stroke-linecap="butt" stroke-linejoin="miter" fill-opacity="0" stroke-miterlimit="4" stroke="rgb(19,71,6)" stroke-opacity="1" stroke-width="5" d=" M86.75301361083984,46.80097198486328 C86.75301361083984,46.80097198486328 37.443668365478516,49.61949157714844 3.557077646255493,82.05958557128906 C-12.5345458984375,97.46882629394531 -25.586000442504883,119.7750015258789 -28,151 C-28.233999252319336,154.0229949951172 13.060272216796875,142.1074676513672 42.42927169799805,115.31146240234375 C71.17227172851562,89.08646392822266 86.75301361083984,46.80097198486328 86.75301361083984,46.80097198486328z"></path></g><g opacity="1" transform="matrix(0.15643446147441864,-0.9876883625984192,0.9876883625984192,0.15643446147441864,-176.41799926757812,260.1839904785156)"><path fill="rgb(61,102,51)" fill-opacity="1" d=" M81.86851501464844,43.96412658691406 C81.86851501464844,43.96412658691406 -20.5,54 -28,151 C-28.233999252319336,154.0229949951172 7.257385730743408,133.41232299804688 43.03938674926758,116.0863265991211 C82.60338592529297,96.92932891845703 81.86851501464844,43.96412658691406 81.86851501464844,43.96412658691406z"></path><path stroke-linecap="butt" stroke-linejoin="miter" fill-opacity="0" stroke-miterlimit="4" stroke="rgb(19,71,6)" stroke-opacity="1" stroke-width="5" d=" M81.86851501464844,43.96412658691406 C81.86851501464844,43.96412658691406 -20.5,54 -28,151 C-28.233999252319336,154.0229949951172 7.257385730743408,133.41232299804688 43.03938674926758,116.0863265991211 C82.60338592529297,96.92932891845703 81.86851501464844,43.96412658691406 81.86851501464844,43.96412658691406z"></path></g><g opacity="1" transform="matrix(1,0,0,1,0,0)"><path fill="rgb(61,102,51)" fill-opacity="1" d=" M31.66427230834961,90.04077911376953 C5.201292991638184,106.76019287109375 -30,152 -30,152"></path><path stroke-linecap="round" stroke-linejoin="miter" fill-opacity="0" stroke-miterlimit="4" stroke="rgb(19,71,6)" stroke-opacity="1" stroke-width="5" d=" M31.66427230834961,90.04077911376953 C5.201292991638184,106.76019287109375 -30,152 -30,152"></path></g><g opacity="1" transform="matrix(1,0,0,1,0,0)"><path fill="rgb(61,102,51)" fill-opacity="1" d=" M-98.73262023925781,215.66427612304688 C-93.515625,222.99327087402344 -83.46430969238281,237.89108276367188 -75.1163101196289,258.9040832519531 C-60.616310119628906,295.4040832519531 -30,312 -30,312"></path><path stroke-linecap="round" stroke-linejoin="miter" fill-opacity="0" stroke-miterlimit="4" stroke="rgb(19,71,6)" stroke-opacity="1" stroke-width="5" d=" M-98.73262023925781,215.66427612304688 C-93.515625,222.99327087402344 -83.46430969238281,237.89108276367188 -75.1163101196289,258.9040832519531 C-60.616310119628906,295.4040832519531 -30,312 -30,312"></path></g><g opacity="1" transform="matrix(1,0,0,1,0,0)"><path fill="rgb(61,102,51)" fill-opacity="1" d=" M-31.80299949645996,-47 C-31.80299949645996,-47 -38.303001403808594,-29 -20.80299949645996,-27 C-3.302999973297119,-25 -5.302999973297119,-40.5 -5.302999973297119,-40.5 C-5.302999973297119,-40.5 -31.80299949645996,-47 -31.80299949645996,-47z"></path><path stroke-linecap="butt" stroke-linejoin="miter" fill-opacity="0" stroke-miterlimit="4" stroke="rgb(19,71,6)" stroke-opacity="1" stroke-width="5" d=" M-31.80299949645996,-47 C-31.80299949645996,-47 -38.303001403808594,-29 -20.80299949645996,-27 C-3.302999973297119,-25 -5.302999973297119,-40.5 -5.302999973297119,-40.5 C-5.302999973297119,-40.5 -31.80299949645996,-47 -31.80299949645996,-47z"></path></g></g><g transform="matrix(1,0,0,1,148.80299377441406,319.0359191894531)" opacity="1" style="display: block;"><g opacity="1" transform="matrix(1,0,0,1,0,0)"><path fill="rgb(90,31,73)" fill-opacity="1" d=" M122.38166046142578,-292.2326354980469 C48.513641357421875,-315.0435485839844 2.3480677604675293,-233.1582489013672 29.348068237304688,-155.1582489013672 C56.34806823730469,-77.15824890136719 245.3294677734375,-254.25535583496094 122.38166046142578,-292.2326354980469z"></path><path stroke-linecap="butt" stroke-linejoin="miter" fill-opacity="0" stroke-miterlimit="4" stroke="rgb(71,6,52)" stroke-opacity="1" stroke-width="5" d=" M122.38166046142578,-292.2326354980469 C48.513641357421875,-315.0435485839844 2.3480677604675293,-233.1582489013672 29.348068237304688,-155.1582489013672 C56.34806823730469,-77.15824890136719 245.3294677734375,-254.25535583496094 122.38166046142578,-292.2326354980469z"></path></g><g opacity="1" transform="matrix(1,0,0,1,0,0)"><path fill="rgb(102,36,84)" fill-opacity="1" d=" M-11.6998929977417,-300.040771484375 C-105.50614166259766,-274.30816650390625 -3.049989938735962,-156.2469940185547 58.950008392333984,-133.2469940185547 C120.95001220703125,-110.24698638916016 113.52554321289062,-334.1846618652344 -11.6998929977417,-300.040771484375z"></path><path stroke-linecap="butt" stroke-linejoin="miter" fill-opacity="0" stroke-miterlimit="4" stroke="rgb(71,6,52)" stroke-opacity="1" stroke-width="5" d=" M-11.6998929977417,-300.040771484375 C-105.50614166259766,-274.30816650390625 -3.049989938735962,-156.2469940185547 58.950008392333984,-133.2469940185547 C120.95001220703125,-110.24698638916016 113.52554321289062,-334.1846618652344 -11.6998929977417,-300.040771484375z"></path></g><g opacity="1" transform="matrix(1,0,0,1,-32.71099853515625,0.4880000054836273)"><path fill="rgb(98,30,78)" fill-opacity="1" d=" M-54.84174728393555,-254.04795837402344 C-85.5361557006836,-65.79731750488281 98.73300170898438,-49.04499816894531 100,-67 C106,-152 50,-185 50,-185 C50,-185 -51.87684631347656,-271.79449462890625 -54.84174728393555,-254.04795837402344z"></path><path stroke-linecap="butt" stroke-linejoin="miter" fill-opacity="0" stroke-miterlimit="4" stroke="rgb(71,6,52)" stroke-opacity="1" stroke-width="5" d=" M-54.84174728393555,-254.04795837402344 C-85.5361557006836,-65.79731750488281 98.73300170898438,-49.04499816894531 100,-67 C106,-152 50,-185 50,-185 C50,-185 -51.87684631347656,-271.79449462890625 -54.84174728393555,-254.04795837402344z"></path></g><g opacity="1" transform="matrix(1,0,0,1,-32.71099853515625,0.4880000054836273)"><path fill="rgb(143,59,119)" fill-opacity="1" d=" M-44.745826721191406,-263.8561096191406 C-49.15160369873047,-262.4846496582031 -55.402610778808594,-259.4643249511719 -55.768611907958984,-250.91531372070312 C-56.134613037109375,-242.36631774902344 -52.81938171386719,-226.13331604003906 -25.297378540039062,-209.68824768066406 C27.41588592529297,-178.0638885498047 36,-211 64,-151 C64,-151 89.16293334960938,-238.22518920898438 35.791358947753906,-244.97601318359375 C-6.205869197845459,-250.09535217285156 -24.049516677856445,-270.6504211425781 -44.745826721191406,-263.8561096191406z"></path><path stroke-linecap="butt" stroke-linejoin="miter" fill-opacity="0" stroke-miterlimit="4" stroke="rgb(71,6,52)" stroke-opacity="1" stroke-width="5" d=" M-44.745826721191406,-263.8561096191406 C-49.15160369873047,-262.4846496582031 -55.402610778808594,-259.4643249511719 -55.768611907958984,-250.91531372070312 C-56.134613037109375,-242.36631774902344 -52.81938171386719,-226.13331604003906 -25.297378540039062,-209.68824768066406 C27.41588592529297,-178.0638885498047 36,-211 64,-151 C64,-151 89.16293334960938,-238.22518920898438 35.791358947753906,-244.97601318359375 C-6.205869197845459,-250.09535217285156 -24.049516677856445,-270.6504211425781 -44.745826721191406,-263.8561096191406z"></path></g><g opacity="1" transform="matrix(1,0,0,1,0,0)"><path fill="rgb(159,79,136)" fill-opacity="1" d=" M166.17747497558594,-270.5923156738281 C154.17747497558594,-262.5923156738281 168.71824645996094,-235.79136657714844 102.71825408935547,-218.79136657714844 C36.71825408935547,-201.79136657714844 4.135000228881836,-151.0019989013672 37,-141 C60,-134 55,-153 91,-175 C127,-197 128.48922729492188,-170.47242736816406 170.48922729492188,-192.47242736816406 C212.48922729492188,-214.47242736816406 178.17747497558594,-278.5923156738281 166.17747497558594,-270.5923156738281z"></path><path stroke-linecap="butt" stroke-linejoin="miter" fill-opacity="0" stroke-miterlimit="4" stroke="rgb(71,6,52)" stroke-opacity="1" stroke-width="5" d=" M166.17747497558594,-270.5923156738281 C154.17747497558594,-262.5923156738281 168.71824645996094,-235.79136657714844 102.71825408935547,-218.79136657714844 C36.71825408935547,-201.79136657714844 4.135000228881836,-151.0019989013672 37,-141 C60,-134 55,-153 91,-175 C127,-197 128.48922729492188,-170.47242736816406 170.48922729492188,-192.47242736816406 C212.48922729492188,-214.47242736816406 178.17747497558594,-278.5923156738281 166.17747497558594,-270.5923156738281z"></path></g><g opacity="1" transform="matrix(1,0,0,1,0,0)"><path fill="rgb(86,18,66)" fill-opacity="1" d=" M122.99055480957031,-259.4244689941406 C92.20455169677734,-304.3824768066406 -15.751448631286621,-289.2314758300781 -31.009449005126953,-248.42446899414062 C-74.00944519042969,-133.42446899414062 59,-105 59,-105 C59,-105 185.9905548095703,-167.42446899414062 122.99055480957031,-259.4244689941406z"></path><path stroke-linecap="butt" stroke-linejoin="miter" fill-opacity="0" stroke-miterlimit="4" stroke="rgb(71,6,52)" stroke-opacity="1" stroke-width="5" d=" M122.99055480957031,-259.4244689941406 C92.20455169677734,-304.3824768066406 -15.751448631286621,-289.2314758300781 -31.009449005126953,-248.42446899414062 C-74.00944519042969,-133.42446899414062 59,-105 59,-105 C59,-105 185.9905548095703,-167.42446899414062 122.99055480957031,-259.4244689941406z"></path></g><g opacity="1" transform="matrix(1,0,0,1,72.38300323486328,-22.038999557495117)"><path fill="rgb(120,45,98)" fill-opacity="1" d=" M101.41009521484375,-247.34591674804688 C100.22052001953125,-247.1027069091797 91.55757141113281,-194.5167999267578 91.55757141113281,-194.5167999267578 C91.55757141113281,-194.5167999267578 26.375301361083984,-158.94969177246094 0.8633007407188416,-151.13670349121094 C-27.019699096679688,-142.5977020263672 -2.284174919128418,-79.97602081298828 -2.284174919128418,-79.97602081298828 C-2.284174919128418,-79.97602081298828 -64,-70 -22,-48 C20,-26 69.70331573486328,-61.74152755737305 109.46524047851562,-134.90408325195312 C149.55130004882812,-209.27352905273438 101.92874908447266,-247.45196533203125 101.41009521484375,-247.34591674804688z"></path><path stroke-linecap="butt" stroke-linejoin="miter" fill-opacity="0" stroke-miterlimit="4" stroke="rgb(71,6,52)" stroke-opacity="1" stroke-width="5" d=" M101.41009521484375,-247.34591674804688 C100.22052001953125,-247.1027069091797 91.55757141113281,-194.5167999267578 91.55757141113281,-194.5167999267578 C91.55757141113281,-194.5167999267578 26.375301361083984,-158.94969177246094 0.8633007407188416,-151.13670349121094 C-27.019699096679688,-142.5977020263672 -2.284174919128418,-79.97602081298828 -2.284174919128418,-79.97602081298828 C-2.284174919128418,-79.97602081298828 -64,-70 -22,-48 C20,-26 69.70331573486328,-61.74152755737305 109.46524047851562,-134.90408325195312 C149.55130004882812,-209.27352905273438 101.92874908447266,-247.45196533203125 101.41009521484375,-247.34591674804688z"></path></g><g opacity="1" transform="matrix(1,0,0,1,0,0)"><path fill="rgb(159,79,136)" fill-opacity="1" d=" M165.67388916015625,-270.97601318359375 C153.60736083984375,-263.102294921875 148.99508666992188,-219.38009643554688 84.67446899414062,-187.97601318359375 C83.67337036132812,-187.482177734375 145.90650939941406,-181.92086791992188 168.90650939941406,-191.92086791992188 C203.19627380371094,-206.82916259765625 189.37457275390625,-252.60299682617188 175.59535217285156,-267.0592041015625 C171.91297912597656,-270.9715576171875 168.2776336669922,-272.67572021484375 165.67388916015625,-270.97601318359375z"></path><path stroke-linecap="butt" stroke-linejoin="miter" fill-opacity="0" stroke-miterlimit="4" stroke="rgb(71,6,52)" stroke-opacity="1" stroke-width="5" d=" M165.67388916015625,-270.97601318359375 C153.60736083984375,-263.102294921875 148.99508666992188,-219.38009643554688 84.67446899414062,-187.97601318359375 C83.67337036132812,-187.482177734375 145.90650939941406,-181.92086791992188 168.90650939941406,-191.92086791992188 C203.19627380371094,-206.82916259765625 189.37457275390625,-252.60299682617188 175.59535217285156,-267.0592041015625 C171.91297912597656,-270.9715576171875 168.2776336669922,-272.67572021484375 165.67388916015625,-270.97601318359375z"></path></g><g opacity="1" transform="matrix(1,0,0,1,0,10)"><path stroke-linecap="round" stroke-linejoin="miter" fill-opacity="0" stroke-miterlimit="4" stroke="rgb(71,6,52)" stroke-opacity="1" stroke-width="5" d=" M56.784175872802734,-252.33572387695312 C56.784175872802734,-252.33572387695312 73.5,-276.5 33,-271.5 C-1.4160000085830688,-267.2510070800781 -6.215825080871582,-220.35971069335938 63.784175872802734,-236.85971069335938 C138.26918029785156,-254.4167022705078 73.48600006103516,-305.87408447265625 3,-276.8800964355469 C-67.5,-247.88009643554688 1.1402913331985474,-153.05514526367188 139.14028930664062,-221.05514526367188"></path></g><g opacity="1" transform="matrix(1,0,0,1,-32.71099853515625,0.4880000054836273)"><path fill="rgb(106,41,87)" fill-opacity="1" d=" M100,-67 C106.71099853515625,-163.48800659179688 33.88727951049805,-195.7637939453125 33.88727951049805,-195.7637939453125 C33.88727951049805,-195.7637939453125 -24.33928871154785,-232.69366455078125 -25.309125900268555,-231.24940490722656 C-54.374847412109375,-187.90284729003906 -48.401519775390625,-142.67428588867188 3.4617085456848145,-94.17539978027344 C34.61865234375,-64.80825805664062 99.38899993896484,-58.21200180053711 100,-67z"></path><path stroke-linecap="butt" stroke-linejoin="miter" fill-opacity="0" stroke-miterlimit="4" stroke="rgb(71,6,52)" stroke-opacity="1" stroke-width="5" d=" M100,-67 C106.71099853515625,-163.48800659179688 33.88727951049805,-195.7637939453125 33.88727951049805,-195.7637939453125 C33.88727951049805,-195.7637939453125 -24.33928871154785,-232.69366455078125 -25.309125900268555,-231.24940490722656 C-54.374847412109375,-187.90284729003906 -48.401519775390625,-142.67428588867188 3.4617085456848145,-94.17539978027344 C34.61865234375,-64.80825805664062 99.38899993896484,-58.21200180053711 100,-67z"></path></g><g opacity="1" transform="matrix(1,0,0,1,-32.71099853515625,0.4880000054836273)"><path fill="rgb(116,48,96)" fill-opacity="1" d=" M83.99099731445312,-61.75299835205078 C182.5657958984375,-56.53696060180664 202.92886352539062,-144.24342346191406 207.6905517578125,-173.34619140625 C212.20538330078125,-200.8477020263672 197.66632080078125,-234.41351318359375 195.99032592773438,-234.8795166015625 C159.79331970214844,-244.9335174560547 106.32318115234375,-191.2081756591797 87.30699920654297,-160.2030029296875 C68.5200424194336,-129.59718322753906 75.19429016113281,-62.220130920410156 83.99099731445312,-61.75299835205078z"></path><path stroke-linecap="butt" stroke-linejoin="miter" fill-opacity="0" stroke-miterlimit="4" stroke="rgb(71,6,52)" stroke-opacity="1" stroke-width="5" d=" M83.99099731445312,-61.75299835205078 C182.5657958984375,-56.53696060180664 202.92886352539062,-144.24342346191406 207.6905517578125,-173.34619140625 C212.20538330078125,-200.8477020263672 197.66632080078125,-234.41351318359375 195.99032592773438,-234.8795166015625 C159.79331970214844,-244.9335174560547 106.32318115234375,-191.2081756591797 87.30699920654297,-160.2030029296875 C68.5200424194336,-129.59718322753906 75.19429016113281,-62.220130920410156 83.99099731445312,-61.75299835205078z"></path></g></g></g></svg>